# xmcd CD database file
#
# Track frame offsets:
#	150
#	24197
#	47462
#	76094
#	108677
#	128049
#	160440
#	186076
#	212817
#
# Disc length: 3097 seconds
#
# Revision: 0
# Processed by: cddbd v1.5.2PL0 Copyright (c) Steve Scherf et al.
# Submitted via: CDex 1.51
#
DISCID=6d0c1709
DTITLE=Pamela McPherson Cornelius - Life of a Super Star
DYEAR=1900
DGENRE=Jazz
TTITLE0=Music
TTITLE1=If You Looked Into My Heart
TTITLE2=It's All Love
TTITLE3=Scoouch
TTITLE4=That Ain't My Style
TTITLE5=Life of a Superstar
TTITLE6=At Last
TTITLE7=Nobody to Blame But Myself
TTITLE8=Besame Mucho
EXTD=
EXTT0=
EXTT1=
EXTT2=
EXTT3=
EXTT4=
EXTT5=
EXTT6=
EXTT7=
EXTT8=
PLAYORDER=
